HIERARCHY
ROOT Hips
{
    OFFSET 0.000000 0.000000 0.000000
    CHANNELS 6 Xposition Yposition Zposition Zrotation Xrotation Yrotation
    JOINT Spine
    {
        OFFSET -0.000000 8.359812 0.000000
        CHANNELS 3 Zrotation Xrotation Yrotation
        JOINT Spine1
        {
            OFFSET -0.000000 28.141317 0.000000
            CHANNELS 3 Zrotation Xrotation Yrotation
            JOINT Neck
            {
                OFFSET -0.000000 28.025745 2.547795
                CHANNELS 3 Zrotation Xrotation Yrotation
                JOINT Head
                {
                    OFFSET -0.000000 14.272848 -2.038978
                    CHANNELS 3 Zrotation Xrotation Yrotation
                    End Site
                    {
                        OFFSET -0.000000 25.487228 0.000000
                    }
                }
            }
            JOINT LeftShoulder
            {
                OFFSET 4.059574 26.120710 -0.180480
                CHANNELS 3 Zrotation Xrotation Yrotation
                JOINT LeftArm
                {
                    OFFSET 11.584161 0.000000 0.000000
                    CHANNELS 3 Zrotation Xrotation Yrotation
                    JOINT LeftForeArm
                    {
                        OFFSET 30.766815 0.000000 0.000000
                        CHANNELS 3 Zrotation Xrotation Yrotation
                        JOINT LeftHand
                        {
                            OFFSET 29.436810 0.000000 0.000000
                            CHANNELS 3 Zrotation Xrotation Yrotation
                            End Site
                            {
                                OFFSET 15.292337 0.000000 0.000000
                            }
                        }
                    }
                }
            }
            JOINT RightShoulder
            {
                OFFSET -4.095355 26.120710 -0.180480
                CHANNELS 3 Zrotation Xrotation Yrotation
                JOINT RightArm
                {
                    OFFSET -11.584161 0.000000 0.000000
                    CHANNELS 3 Zrotation Xrotation Yrotation
                    JOINT RightForeArm
                    {
                        OFFSET -30.766815 0.000000 0.000000
                        CHANNELS 3 Zrotation Xrotation Yrotation
                        JOINT RightHand
                        {
                            OFFSET -29.436810 0.000000 0.000000
                            CHANNELS 3 Zrotation Xrotation Yrotation
                            End Site
                            {
                                OFFSET -15.292337 0.000000 0.000000
                            }
                        }
                    }
                }
            }
        }
    }
    JOINT LeftUpLeg
    {
        OFFSET 10.194892 0.000000 0.000000
        CHANNELS 3 Zrotation Xrotation Yrotation
        JOINT LeftLeg
        {
            OFFSET -0.000000 -32.520012 0.000000
            CHANNELS 3 Zrotation Xrotation Yrotation
            JOINT LeftFoot
            {
                OFFSET -0.000000 -49.106510 0.000000
                CHANNELS 3 Zrotation Xrotation Yrotation
                JOINT LeftToeBase
                {
                    OFFSET -0.000000 -6.626679 15.292337
                    CHANNELS 3 Zrotation Xrotation Yrotation
                    End Site
                    {
                        OFFSET -0.000000 0.000000 4.077957
                    }
                }
            }
        }
    }
    JOINT RightUpLeg
    {
        OFFSET -10.194892 0.000000 0.000000
        CHANNELS 3 Zrotation Xrotation Yrotation
        JOINT RightLeg
        {
            OFFSET -0.000000 -32.520012 0.000000
            CHANNELS 3 Zrotation Xrotation Yrotation
            JOINT RightFoot
            {
                OFFSET -0.000000 -49.106510 0.000000
                CHANNELS 3 Zrotation Xrotation Yrotation
                JOINT RightToeBase
                {
                    OFFSET -0.000000 -6.626679 15.292337
                    CHANNELS 3 Zrotation Xrotation Yrotation
                    End Site
                    {
                        OFFSET -0.000000 0.000000 4.077957
                    }
                }
            }
        }
    }
}
MOTION
Frames:    7
Frame Time:    0.008333
-30.615959    88.077721    53.813244    -3.409759    -0.762638    81.524475    3.156456    -8.666113    0.083461    -0.581407    1.938394    -0.146089    5.177835    28.174608    14.020888    -14.926056    -3.753308    12.636166    15.334901    -1.950310    1.104869    -7.115486    0.714473    2.940640    1.751488    3.915581    3.443320    12.584706    5.134641    11.528322    -15.723356    -1.177874    1.961288    16.267498    -2.981704    17.767998    -0.712756    1.183319    -3.977510    -10.062016    1.903094    -8.444901    6.138721    -0.795328    -4.508636    -4.192437    -0.259716    -11.582433    2.137821    -1.686489    34.492466    0.000000    0.000000    0.000000    -0.972056    0.720865    3.768227    4.578131    -0.192038    4.408565    -3.354025    -3.162980    -10.461671    0.000000    0.000000    0.000000    
-30.652588    88.073975    53.854519    -3.415961    -0.775445    81.523605    3.196234    -8.662718    0.083275    -0.613813    1.967121    -0.148221    5.195799    28.200876    13.998926    -14.933334    -3.807757    12.608387    15.366348    -1.943731    1.110907    -7.112206    0.736161    2.932850    1.758590    3.897463    3.436171    12.612086    5.115845    11.497879    -15.727018    -1.186552    1.965172    16.270212    -3.011829    17.799431    -0.695891    1.264781    -3.968023    -10.331236    2.006550    -8.459993    6.189785    -0.845289    -4.494791    -4.204992    -0.226701    -11.483021    2.146920    -1.682836    34.395260    0.000000    0.000000    0.000000    -0.923101    0.693983    3.738118    4.569995    -0.184878    4.444809    -3.376926    -3.150742    -10.460437    0.000000    0.000000    0.000000    
-30.687260    88.074631    53.895844    -3.433748    -0.745188    81.482224    3.188866    -8.687585    0.104171    -0.632698    2.025931    -0.127133    5.193516    28.081518    13.994254    -14.855776    -3.685116    12.625944    15.418532    -1.983889    1.132025    -7.140261    0.791260    2.918847    1.765273    3.880958    3.427743    12.645227    5.092035    11.402547    -15.704445    -1.215919    1.857192    16.229959    -2.968180    17.950279    -0.696077    1.370101    -3.988572    -10.226611    2.114539    -8.577573    6.198301    -0.894857    -4.466456    -4.213341    -0.199892    -11.435321    2.098104    -1.682331    34.366776    0.000000    0.000000    0.000000    -0.929779    0.631852    3.784791    4.587598    -0.163255    4.474453    -3.423657    -3.145346    -10.488099    0.000000    0.000000    0.000000    
-30.730677    88.072052    53.926636    -3.466574    -0.708461    81.422401    3.176192    -8.685259    0.143348    -0.620711    2.000856    -0.087700    5.170640    28.012239    13.974691    -14.761337    -3.550042    12.632474    15.445143    -2.015321    1.079892    -7.176568    0.848160    2.948440    1.793173    3.919070    3.427692    12.533341    5.113084    11.357883    -15.773453    -1.241372    1.924715    16.234123    -2.830669    17.855600    -0.712259    1.438714    -3.948276    -10.283014    2.193912    -8.653652    6.185266    -0.966810    -4.438357    -4.197917    -0.171717    -11.366552    2.038606    -1.680087    34.323872    0.000000    0.000000    0.000000    -0.955346    0.530074    3.814993    4.621130    -0.109570    4.564261    -3.478223    -3.156270    -10.541647    0.000000    0.000000    0.000000    
-30.756754    88.075722    53.980690    -3.458550    -0.719469    81.422417    3.177182    -8.665467    0.136584    -0.594460    1.996284    -0.094085    4.964267    28.022181    14.031137    -14.411774    -3.600473    12.721789    15.438438    -2.019700    1.047045    -7.170872    0.908885    2.971888    1.799096    3.970056    3.440967    12.478914    5.160079    11.375612    -15.770306    -1.231257    1.962574    16.171120    -2.740099    17.866194    -0.696487    1.529375    -3.961662    -10.433543    2.296735    -8.656482    6.251641    -0.985362    -4.409357    -4.230292    -0.144435    -11.371150    2.015385    -1.669466    34.310177    0.000000    0.000000    0.000000    -0.911010    0.557958    3.871988    4.619451    -0.161885    4.537865    -3.505109    -3.109016    -10.561661    0.000000    0.000000    0.000000    
-30.802256    88.083145    54.031944    -3.495505    -0.701307    81.408356    3.150570    -8.671351    0.132404    -0.553270    1.971120    -0.097202    5.075791    28.055424    13.960401    -14.593843    -3.525881    12.640425    15.387198    -1.988810    1.048787    -7.120670    0.942485    2.969611    1.767650    3.933324    3.395370    12.818600    5.167355    11.448006    -15.779593    -1.218740    2.005489    16.118578    -2.662247    17.873859    -0.742479    1.688530    -3.955738    -10.186299    2.433832    -8.638845    6.291702    -1.083979    -4.385803    -4.256021    -0.087766    -11.355290    1.932114    -1.648845    34.300781    0.000000    0.000000    0.000000    -0.893508    0.491392    3.938419    4.630785    -0.171329    4.488482    -3.537479    -3.058471    -10.545686    0.000000    0.000000    0.000000    
-30.832582    88.087685    54.078953    -3.490148    -0.681306    81.410156    3.132498    -8.665983    0.126391    -0.532017    1.992663    -0.101717    5.026839    28.007536    13.956335    -14.492954    -3.448263    12.654893    15.365409    -1.995617    1.063205    -7.099221    0.989461    2.935915    1.810262    4.076945    3.427839    12.403920    5.262760    11.408829    -15.779431    -1.203505    2.018882    16.047310    -2.588211    17.897789    -0.708600    1.646037    -3.928714    -10.337355    2.409547    -8.697742    6.309983    -1.114049    -4.376681    -4.263555    -0.058512    -11.378749    1.862784    -1.615956    34.326176    0.000000    0.000000    0.000000    -0.885412    0.503920    3.913789    4.639494    -0.216916    4.438878    -3.542159    -3.023125    -10.478380    0.000000    0.000000    0.000000    
